<?xml version="1.0" encoding="UTF-8" standalone="no"?>
<svg
        xmlns:svg="http://www.w3.org/2000/svg"
        xmlns="http://www.w3.org/2000/svg"
        viewBox="0 0 58 58"
        version="1.1"
        width="58"
        height="58">
    <path
            d="M 46,42 H 20 a 1,1 0 0 1 0,-2 h 26 a 1,1 0 0 1 0,2 z m 0,-8 H 20 a 1,1 0 0 1 0,-2 h 26 a 1,1 0 0 1 0,2 z m 0,-8 H 20 a 1,1 0 0 1 0,-2 h 26 a 1,1 0 0 1 0,2 z m 0,-8 H 20 a 1,1 0 0 1 0,-2 h 26 a 1,1 0 0 1 0,2 z M 13,43 a 2,2 0 1 1 2,-2 2,2 0 0 1 -2,2 z m 0,-2 z m 0,0 z m 0,0 z m 0,0 z m 0,0 z m 0,0 z m 0,0 z m 0,0 z m 0,-6 a 2,2 0 1 1 2,-2 2,2 0 0 1 -2,2 z m 0,-2 z m 0,0 z m 0,0 z m 0,0 z m 0,0 z m 0,0 z m 0,0 z m 0,0 z m 0,-6 a 2,2 0 1 1 2,-2 2,2 0 0 1 -2,2 z m 0,-2 z m 0,0 z m 0,0 z m 0,0 z m 0,0 z m 0,0 z m 0,0 z m 0,0 z m 0,-6 a 2,2 0 1 1 2,-2 2,2 0 0 1 -2,2 z m 0,-2 z m 0,0 z m 0,0 z m 0,0 z m 0,0 z m 0,0 z m 0,0 z m 0,0 z"
            id="path827"
            style="fill:#ffffff;fill-opacity:1" />
    <path
            d="M 29,58 A 29,29 0 1 1 58,29 29,29 0 0 1 29,58 Z M 29,2 A 27,27 0 1 0 56,29 27,27 0 0 0 29,2 Z"
            id="path829"
            style="fill:#ffffff;fill-opacity:1" />
</svg>
