<svg width="22" height="21" viewBox="0 0 22 21" fill="none" xmlns="http://www.w3.org/2000/svg">
<path d="M15.748 12.25C16.0133 12.25 16.2676 12.1446 16.4552 11.9571C16.6427 11.7696 16.748 11.5152 16.748 11.25C16.748 10.9848 16.6427 10.7304 16.4552 10.5429C16.2676 10.3554 16.0133 10.25 15.748 10.25C15.4828 10.25 15.2285 10.3554 15.0409 10.5429C14.8534 10.7304 14.748 10.9848 14.748 11.25C14.748 11.5152 14.8534 11.7696 15.0409 11.9571C15.2285 12.1446 15.4828 12.25 15.748 12.25ZM15.748 16.25C16.0133 16.25 16.2676 16.1446 16.4552 15.9571C16.6427 15.7696 16.748 15.5152 16.748 15.25C16.748 14.9848 16.6427 14.7304 16.4552 14.5429C16.2676 14.3554 16.0133 14.25 15.748 14.25C15.4828 14.25 15.2285 14.3554 15.0409 14.5429C14.8534 14.7304 14.748 14.9848 14.748 15.25C14.748 15.5152 14.8534 15.7696 15.0409 15.9571C15.2285 16.1446 15.4828 16.25 15.748 16.25ZM11.748 11.25C11.748 11.5152 11.6427 11.7696 11.4552 11.9571C11.2676 12.1446 11.0133 12.25 10.748 12.25C10.4828 12.25 10.2285 12.1446 10.0409 11.9571C9.8534 11.7696 9.74805 11.5152 9.74805 11.25C9.74805 10.9848 9.8534 10.7304 10.0409 10.5429C10.2285 10.3554 10.4828 10.25 10.748 10.25C11.0133 10.25 11.2676 10.3554 11.4552 10.5429C11.6427 10.7304 11.748 10.9848 11.748 11.25ZM11.748 15.25C11.748 15.5152 11.6427 15.7696 11.4552 15.9571C11.2676 16.1446 11.0133 16.25 10.748 16.25C10.4828 16.25 10.2285 16.1446 10.0409 15.9571C9.8534 15.7696 9.74805 15.5152 9.74805 15.25C9.74805 14.9848 9.8534 14.7304 10.0409 14.5429C10.2285 14.3554 10.4828 14.25 10.748 14.25C11.0133 14.25 11.2676 14.3554 11.4552 14.5429C11.6427 14.7304 11.748 14.9848 11.748 15.25ZM5.74805 12.25C6.01326 12.25 6.26762 12.1446 6.45515 11.9571C6.64269 11.7696 6.74805 11.5152 6.74805 11.25C6.74805 10.9848 6.64269 10.7304 6.45515 10.5429C6.26762 10.3554 6.01326 10.25 5.74805 10.25C5.48283 10.25 5.22848 10.3554 5.04094 10.5429C4.8534 10.7304 4.74805 10.9848 4.74805 11.25C4.74805 11.5152 4.8534 11.7696 5.04094 11.9571C5.22848 12.1446 5.48283 12.25 5.74805 12.25ZM5.74805 16.25C6.01326 16.25 6.26762 16.1446 6.45515 15.9571C6.64269 15.7696 6.74805 15.5152 6.74805 15.25C6.74805 14.9848 6.64269 14.7304 6.45515 14.5429C6.26762 14.3554 6.01326 14.25 5.74805 14.25C5.48283 14.25 5.22848 14.3554 5.04094 14.5429C4.8534 14.7304 4.74805 14.9848 4.74805 15.25C4.74805 15.5152 4.8534 15.7696 5.04094 15.9571C5.22848 16.1446 5.48283 16.25 5.74805 16.25Z" fill="#FFDA2B"/>
<path fill-rule="evenodd" clip-rule="evenodd" d="M5.749 0C5.94791 0 6.13868 0.0790177 6.27933 0.21967C6.41998 0.360322 6.499 0.551088 6.499 0.75V1.513C7.161 1.5 7.89 1.5 8.692 1.5H12.805C13.608 1.5 14.337 1.5 14.999 1.513V0.75C14.999 0.551088 15.078 0.360322 15.2187 0.21967C15.3593 0.0790177 15.5501 0 15.749 0C15.9479 0 16.1387 0.0790177 16.2793 0.21967C16.42 0.360322 16.499 0.551088 16.499 0.75V1.577C16.759 1.597 17.0053 1.62233 17.238 1.653C18.41 1.811 19.359 2.143 20.108 2.891C20.856 3.64 21.188 4.589 21.346 5.761C21.499 6.901 21.499 8.356 21.499 10.194V12.306C21.499 14.144 21.499 15.6 21.346 16.739C21.188 17.911 20.856 18.86 20.108 19.609C19.359 20.357 18.41 20.689 17.238 20.847C16.098 21 14.643 21 12.805 21H8.694C6.856 21 5.4 21 4.261 20.847C3.089 20.689 2.14 20.357 1.391 19.609C0.643 18.86 0.311 17.911 0.153 16.739C0 15.599 0 14.144 0 12.306V10.194C0 8.356 0 6.9 0.153 5.761C0.311 4.589 0.643 3.64 1.391 2.891C2.14 2.143 3.089 1.811 4.261 1.653C4.49433 1.62233 4.74067 1.597 5 1.577V0.75C5 0.551261 5.07888 0.360647 5.21932 0.220023C5.35975 0.0793996 5.55026 0.000264986 5.749 0ZM4.459 3.14C3.454 3.275 2.874 3.529 2.451 3.952C2.028 4.375 1.774 4.955 1.639 5.96C1.61633 6.13 1.597 6.30967 1.581 6.499H19.917C19.901 6.30967 19.8817 6.12967 19.859 5.959C19.724 4.954 19.47 4.374 19.047 3.951C18.624 3.528 18.044 3.274 17.038 3.139C16.011 3.001 14.656 2.999 12.749 2.999H8.749C6.842 2.999 5.488 3.002 4.459 3.14ZM1.499 10.25C1.499 9.396 1.499 8.653 1.512 8H19.986C19.999 8.653 19.999 9.396 19.999 10.25V12.25C19.999 14.157 19.997 15.512 19.859 16.54C19.724 17.545 19.47 18.125 19.047 18.548C18.624 18.971 18.044 19.225 17.038 19.36C16.011 19.498 14.656 19.5 12.749 19.5H8.749C6.842 19.5 5.488 19.498 4.459 19.36C3.454 19.225 2.874 18.971 2.451 18.548C2.028 18.125 1.774 17.545 1.639 16.539C1.501 15.512 1.499 14.157 1.499 12.25V10.25Z" fill="#FFDA2B"/>
</svg>
