<svg width="24.000000" height="24.000000" viewBox="0 0 24 24" fill="none" xmlns="http://www.w3.org/2000/svg" xmlns:xlink="http://www.w3.org/1999/xlink">
    <path id="Vector" d="M22 7.53503L22 17C22.0001 17.7653 21.7077 18.5016 21.1827 19.0583C20.6577 19.615 19.9399 19.9502 19.176 19.995L19 20L5 20C4.2348 20.0001 3.49847 19.7078 2.94174 19.1827C2.38498 18.6578 2.0499 17.9399 2.005 17.176L2 17L2 7.53503L11.445 13.832L11.561 13.8981C11.6977 13.9648 11.8478 13.9995 12 13.9995C12.1522 13.9995 12.3023 13.9648 12.439 13.8981L12.555 13.832L22 7.53503Z" fill="#FFFFFF" fill-opacity="1.000000" fill-rule="nonzero"/>
    <path id="Vector" d="M19.0001 4C20.0801 4 21.0271 4.56995 21.5551 5.427L12.0001 11.797L2.44507 5.427C2.6958 5.01978 3.04028 4.67834 3.44977 4.4314C3.85928 4.18433 4.3219 4.03882 4.79907 4.00696L5.00006 4L19.0001 4Z" fill="#FFFFFF" fill-opacity="1.000000" fill-rule="nonzero"/>
</svg>
