<svg width="20.841583" height="12.381348" viewBox="0 0 20.8416 12.3813" fill="none"
     xmlns="http://www.w3.org/2000/svg" xmlns:xlink="http://www.w3.org/1999/xlink">
    <path id="Vector"
          d="M20.004 12.3804L17.722 12.3804C16.859 12.3804 16.599 11.6814 15.052 10.1333C13.7 8.83032 13.129 8.66833 12.787 8.66833C12.314 8.66833 12.185 8.79834 12.185 9.44934L12.185 11.5013C12.185 12.0564 12.005 12.3813 10.555 12.3813C9.14828 12.2869 7.78415 11.8595 6.57498 11.1345C5.36578 10.4095 4.34613 9.40759 3.60001 8.2113C1.8284 6.00635 0.595703 3.41846 0 0.65332C0 0.311401 0.130005 0.00134277 0.782013 0.00134277L3.06201 0.00134277C3.64801 0.00134277 3.85901 0.262329 4.08899 0.865356C5.19601 4.12341 7.08499 6.9574 7.85199 6.9574C8.146 6.9574 8.27399 6.82739 8.27399 6.09436L8.27399 2.7384C8.177 1.2074 7.36401 1.07837 7.36401 0.524414C7.3743 0.378174 7.44113 0.241821 7.55038 0.144165C7.65961 0.0465088 7.80261 -0.00476074 7.94901 0.00134277L11.533 0.00134277C12.023 0.00134277 12.185 0.245361 12.185 0.831299L12.185 5.36133C12.185 5.85034 12.395 6.01233 12.543 6.01233C12.837 6.01233 13.063 5.85034 13.602 5.31238C14.7574 3.90332 15.7013 2.3335 16.404 0.652344C16.4759 0.450562 16.6119 0.27771 16.7912 0.1604C16.9705 0.0429688 17.1832 -0.0124512 17.397 0.00231934L19.678 0.00231934C20.362 0.00231934 20.507 0.34436 20.362 0.832397C19.5324 2.6908 18.5058 4.45483 17.3 6.09436C17.054 6.46936 16.956 6.66431 17.3 7.10437C17.526 7.44641 18.326 8.11438 18.863 8.74939C19.645 9.5293 20.294 10.4314 20.785 11.4193C20.981 12.0553 20.655 12.3804 20.004 12.3804Z"
          fill="#FFFFFF" fill-opacity="1.000000" fill-rule="nonzero"/>
</svg>