<svg width="20.990540" height="20.968018" viewBox="0 0 20.9905 20.968" fill="none" xmlns="http://www.w3.org/2000/svg" xmlns:xlink="http://www.w3.org/1999/xlink">
    <path id="Vector" d="M19.4169 4.85803C16.2819 -0.00195312 9.86188 -1.44202 4.89685 1.573C0.0518799 4.58801 -1.50812 11.158 1.62689 16.0031L1.8819 16.3931L0.831848 20.323L4.76184 19.2731L5.15186 19.528C6.84686 20.443 8.69189 20.968 10.5219 20.968C12.4869 20.968 14.4518 20.443 16.1469 19.3931C20.9919 16.243 22.4319 9.80798 19.4169 4.828L19.4169 4.85803ZM16.6719 14.968C16.1469 15.748 15.4869 16.2731 14.5719 16.408C14.0469 16.408 13.3868 16.663 10.7769 15.6281C8.55688 14.578 6.71185 12.868 5.40686 10.903C4.62689 9.98804 4.22186 8.80298 4.10187 7.61804C4.10187 6.56799 4.49188 5.65295 5.15186 4.99304C5.40686 4.73804 5.67688 4.60303 5.93188 4.60303L6.59186 4.60303C6.84686 4.60303 7.11688 4.60303 7.25189 5.12805C7.5069 5.78796 8.16687 7.36304 8.16687 7.49805C8.30188 7.63306 8.24188 8.63806 7.64185 9.20801C7.31189 9.58301 7.25189 9.59802 7.38684 9.86804C7.91187 10.6481 8.5719 11.443 9.21686 12.103C9.99689 12.7631 10.7919 13.288 11.7068 13.678C11.9619 13.813 12.2319 13.813 12.3669 13.543C12.5019 13.288 13.1469 12.6281 13.4169 12.358C13.6719 12.103 13.8069 12.103 14.0768 12.223L16.1769 13.2731C16.4319 13.408 16.7018 13.528 16.8369 13.663C16.9719 14.053 16.9719 14.578 16.7018 14.968L16.6719 14.968Z" fill="#FFFFFF" fill-opacity="1.000000" fill-rule="nonzero"/>
</svg>
