<svg width="34" height="34" viewBox="0 0 34 34" fill="none" xmlns="http://www.w3.org/2000/svg">
<path d="M12.325 15.1583L21.675 10.3417M12.325 18.8417L21.675 23.6583M4.25 17C4.25 18.1272 4.69777 19.2082 5.4948 20.0052C6.29183 20.8022 7.37283 21.25 8.5 21.25C9.62717 21.25 10.7082 20.8022 11.5052 20.0052C12.3022 19.2082 12.75 18.1272 12.75 17C12.75 15.8728 12.3022 14.7918 11.5052 13.9948C10.7082 13.1978 9.62717 12.75 8.5 12.75C7.37283 12.75 6.29183 13.1978 5.4948 13.9948C4.69777 14.7918 4.25 15.8728 4.25 17ZM21.25 8.5C21.25 9.62717 21.6978 10.7082 22.4948 11.5052C23.2918 12.3022 24.3728 12.75 25.5 12.75C26.6272 12.75 27.7082 12.3022 28.5052 11.5052C29.3022 10.7082 29.75 9.62717 29.75 8.5C29.75 7.37283 29.3022 6.29183 28.5052 5.4948C27.7082 4.69777 26.6272 4.25 25.5 4.25C24.3728 4.25 23.2918 4.69777 22.4948 5.4948C21.6978 6.29183 21.25 7.37283 21.25 8.5ZM21.25 25.5C21.25 26.6272 21.6978 27.7082 22.4948 28.5052C23.2918 29.3022 24.3728 29.75 25.5 29.75C26.6272 29.75 27.7082 29.3022 28.5052 28.5052C29.3022 27.7082 29.75 26.6272 29.75 25.5C29.75 24.3728 29.3022 23.2918 28.5052 22.4948C27.7082 21.6978 26.6272 21.25 25.5 21.25C24.3728 21.25 23.2918 21.6978 22.4948 22.4948C21.6978 23.2918 21.25 24.3728 21.25 25.5Z" stroke="#343434" stroke-width="2" stroke-linecap="round" stroke-linejoin="round"/>
</svg>
